# xmcd
#
# Track frame offsets: 
#        150
#        75596
#        104607
#        125261
#
# Disc length: 2157 seconds
#
# Revision: 0
# Processed by: cddbd v1.5.2PL0 Copyright (c) Steve Scherf et al.
# Submitted via: ExactAudioCopyFreeDBPlugin 1.0
#
DISCID=29086b04
DTITLE=Eric Clapton - Mr. Robert Johnson (Bonus CD)
DYEAR=2010
DGENRE=Blues
TTITLE0=Double Trouble (Different Mix)
TTITLE1=Crossroads (Different Mix)
TTITLE2=Cocaine (Soundtrack Mix)
TTITLE3=Tulsa Time (Soundtrack Mix)
EXTD=
EXTT0=
EXTT1=
EXTT2=
EXTT3=
PLAYORDER=
